<mxfile host="app.diagrams.net" agent="Mozilla/5.0 (Windows NT 10.0; Win64; x64) AppleWebKit/537.36 (KHTML, like Gecko) Chrome/127.0.0.0 Safari/537.36" version="24.7.6">
  <diagram id="R2lEEEUBdFMjLlhIrx00" name="Page-1">
    <mxGraphModel dx="2465" dy="962" grid="1" gridSize="10" guides="1" tooltips="1" connect="1" arrows="1" fold="1" page="1" pageScale="1" pageWidth="850" pageHeight="1100" math="0" shadow="0" extFonts="Permanent Marker^https://fonts.googleapis.com/css?family=Permanent+Marker">
      <root>
        <mxCell id="0" />
        <mxCell id="1" parent="0" />
        <mxCell id="j2GO0OiW-Q0y1aepMTHA-4" value="Student" style="rounded=1;arcSize=10;whiteSpace=wrap;html=1;align=center;" vertex="1" parent="1">
          <mxGeometry x="370" y="430" width="100" height="40" as="geometry" />
        </mxCell>
        <mxCell id="j2GO0OiW-Q0y1aepMTHA-5" value="Student Name" style="ellipse;whiteSpace=wrap;html=1;align=center;" vertex="1" parent="1">
          <mxGeometry x="300" y="350" width="100" height="40" as="geometry" />
        </mxCell>
        <mxCell id="j2GO0OiW-Q0y1aepMTHA-7" value="" style="endArrow=none;html=1;rounded=0;exitX=0.62;exitY=0.905;exitDx=0;exitDy=0;exitPerimeter=0;entryX=0.5;entryY=0;entryDx=0;entryDy=0;" edge="1" parent="1" source="j2GO0OiW-Q0y1aepMTHA-5" target="j2GO0OiW-Q0y1aepMTHA-4">
          <mxGeometry relative="1" as="geometry">
            <mxPoint x="340" y="450" as="sourcePoint" />
            <mxPoint x="500" y="450" as="targetPoint" />
          </mxGeometry>
        </mxCell>
        <mxCell id="j2GO0OiW-Q0y1aepMTHA-8" value="Date of Birth" style="ellipse;whiteSpace=wrap;html=1;align=center;" vertex="1" parent="1">
          <mxGeometry x="350" y="310" width="100" height="40" as="geometry" />
        </mxCell>
        <mxCell id="j2GO0OiW-Q0y1aepMTHA-9" value="" style="endArrow=none;html=1;rounded=0;exitX=0.62;exitY=0.905;exitDx=0;exitDy=0;exitPerimeter=0;entryX=0.5;entryY=0;entryDx=0;entryDy=0;" edge="1" parent="1" source="j2GO0OiW-Q0y1aepMTHA-8" target="j2GO0OiW-Q0y1aepMTHA-4">
          <mxGeometry relative="1" as="geometry">
            <mxPoint x="460" y="430" as="sourcePoint" />
            <mxPoint x="540" y="410" as="targetPoint" />
          </mxGeometry>
        </mxCell>
        <mxCell id="j2GO0OiW-Q0y1aepMTHA-12" value="Age" style="ellipse;whiteSpace=wrap;html=1;align=center;dashed=1;" vertex="1" parent="1">
          <mxGeometry x="460" y="310" width="100" height="40" as="geometry" />
        </mxCell>
        <mxCell id="j2GO0OiW-Q0y1aepMTHA-13" value="" style="endArrow=none;html=1;rounded=0;entryX=0.5;entryY=0;entryDx=0;entryDy=0;" edge="1" parent="1" target="j2GO0OiW-Q0y1aepMTHA-4">
          <mxGeometry relative="1" as="geometry">
            <mxPoint x="510" y="340" as="sourcePoint" />
            <mxPoint x="670" y="340" as="targetPoint" />
          </mxGeometry>
        </mxCell>
        <mxCell id="j2GO0OiW-Q0y1aepMTHA-14" value="Student ID" style="ellipse;whiteSpace=wrap;html=1;align=center;fontStyle=4;" vertex="1" parent="1">
          <mxGeometry x="200" y="330" width="100" height="40" as="geometry" />
        </mxCell>
        <mxCell id="j2GO0OiW-Q0y1aepMTHA-15" value="" style="endArrow=none;html=1;rounded=0;exitX=0.62;exitY=1.085;exitDx=0;exitDy=0;entryX=0;entryY=0;entryDx=0;entryDy=0;exitPerimeter=0;" edge="1" parent="1" source="j2GO0OiW-Q0y1aepMTHA-14" target="j2GO0OiW-Q0y1aepMTHA-4">
          <mxGeometry relative="1" as="geometry">
            <mxPoint x="340" y="460" as="sourcePoint" />
            <mxPoint x="500" y="460" as="targetPoint" />
          </mxGeometry>
        </mxCell>
        <mxCell id="j2GO0OiW-Q0y1aepMTHA-19" value="Father&#39;s Name" style="ellipse;whiteSpace=wrap;html=1;align=center;" vertex="1" parent="1">
          <mxGeometry x="797" y="322" width="100" height="40" as="geometry" />
        </mxCell>
        <mxCell id="j2GO0OiW-Q0y1aepMTHA-28" value="" style="endArrow=none;html=1;rounded=0;entryX=1;entryY=0.5;entryDx=0;entryDy=0;exitX=0;exitY=0.75;exitDx=0;exitDy=0;exitPerimeter=0;" edge="1" parent="1" source="j2GO0OiW-Q0y1aepMTHA-37" target="j2GO0OiW-Q0y1aepMTHA-4">
          <mxGeometry relative="1" as="geometry">
            <mxPoint x="488.4000000000001" y="542.5999999999999" as="sourcePoint" />
            <mxPoint x="410" y="590" as="targetPoint" />
          </mxGeometry>
        </mxCell>
        <mxCell id="j2GO0OiW-Q0y1aepMTHA-32" value="" style="endArrow=none;html=1;rounded=0;exitX=1;exitY=0.5;exitDx=0;exitDy=0;" edge="1" parent="1" target="j2GO0OiW-Q0y1aepMTHA-31">
          <mxGeometry relative="1" as="geometry">
            <mxPoint x="560" y="560" as="sourcePoint" />
            <mxPoint x="487" y="660" as="targetPoint" />
          </mxGeometry>
        </mxCell>
        <mxCell id="j2GO0OiW-Q0y1aepMTHA-37" value="Gaurdian Details" style="ellipse;whiteSpace=wrap;html=1;align=center;" vertex="1" parent="1">
          <mxGeometry x="590" y="422" width="100" height="40" as="geometry" />
        </mxCell>
        <mxCell id="j2GO0OiW-Q0y1aepMTHA-38" value="Father&#39;s Details" style="ellipse;whiteSpace=wrap;html=1;align=center;" vertex="1" parent="1">
          <mxGeometry x="740" y="392" width="100" height="40" as="geometry" />
        </mxCell>
        <mxCell id="j2GO0OiW-Q0y1aepMTHA-39" value="" style="endArrow=none;html=1;rounded=0;entryX=1;entryY=0;entryDx=0;entryDy=0;" edge="1" parent="1">
          <mxGeometry relative="1" as="geometry">
            <mxPoint x="770" y="432" as="sourcePoint" />
            <mxPoint x="690" y="442" as="targetPoint" />
          </mxGeometry>
        </mxCell>
        <mxCell id="j2GO0OiW-Q0y1aepMTHA-40" value="" style="endArrow=none;html=1;rounded=0;exitX=0.628;exitY=0.025;exitDx=0;exitDy=0;exitPerimeter=0;" edge="1" parent="1" source="j2GO0OiW-Q0y1aepMTHA-38">
          <mxGeometry relative="1" as="geometry">
            <mxPoint x="560" y="472" as="sourcePoint" />
            <mxPoint x="847" y="360" as="targetPoint" />
          </mxGeometry>
        </mxCell>
        <mxCell id="j2GO0OiW-Q0y1aepMTHA-41" value="Father&#39;s Phone No." style="ellipse;whiteSpace=wrap;html=1;align=center;" vertex="1" parent="1">
          <mxGeometry x="867" y="362" width="100" height="40" as="geometry" />
        </mxCell>
        <mxCell id="j2GO0OiW-Q0y1aepMTHA-42" value="" style="endArrow=none;html=1;rounded=0;exitX=1;exitY=0.5;exitDx=0;exitDy=0;" edge="1" parent="1" source="j2GO0OiW-Q0y1aepMTHA-38" target="j2GO0OiW-Q0y1aepMTHA-41">
          <mxGeometry relative="1" as="geometry">
            <mxPoint x="850" y="433" as="sourcePoint" />
            <mxPoint x="767" y="512" as="targetPoint" />
          </mxGeometry>
        </mxCell>
        <mxCell id="j2GO0OiW-Q0y1aepMTHA-43" value="Highest Qualification" style="ellipse;whiteSpace=wrap;html=1;align=center;" vertex="1" parent="1">
          <mxGeometry x="890" y="412" width="100" height="40" as="geometry" />
        </mxCell>
        <mxCell id="j2GO0OiW-Q0y1aepMTHA-44" value="" style="endArrow=none;html=1;rounded=0;exitX=0.964;exitY=0.725;exitDx=0;exitDy=0;exitPerimeter=0;" edge="1" parent="1" source="j2GO0OiW-Q0y1aepMTHA-38" target="j2GO0OiW-Q0y1aepMTHA-43">
          <mxGeometry relative="1" as="geometry">
            <mxPoint x="858.5" y="497.5" as="sourcePoint" />
            <mxPoint x="775.5" y="576.5" as="targetPoint" />
          </mxGeometry>
        </mxCell>
        <mxCell id="j2GO0OiW-Q0y1aepMTHA-45" value="Occupation" style="ellipse;whiteSpace=wrap;html=1;align=center;" vertex="1" parent="1">
          <mxGeometry x="857" y="462" width="100" height="40" as="geometry" />
        </mxCell>
        <mxCell id="j2GO0OiW-Q0y1aepMTHA-46" value="" style="endArrow=none;html=1;rounded=0;exitX=1;exitY=1;exitDx=0;exitDy=0;" edge="1" parent="1" source="j2GO0OiW-Q0y1aepMTHA-38" target="j2GO0OiW-Q0y1aepMTHA-45">
          <mxGeometry relative="1" as="geometry">
            <mxPoint x="840" y="533" as="sourcePoint" />
            <mxPoint x="757" y="612" as="targetPoint" />
          </mxGeometry>
        </mxCell>
        <mxCell id="j2GO0OiW-Q0y1aepMTHA-47" value="Mother&#39;s Details" style="ellipse;whiteSpace=wrap;html=1;align=center;" vertex="1" parent="1">
          <mxGeometry x="660" y="550" width="100" height="40" as="geometry" />
        </mxCell>
        <mxCell id="j2GO0OiW-Q0y1aepMTHA-48" value="Mother&#39;s Name" style="ellipse;whiteSpace=wrap;html=1;align=center;" vertex="1" parent="1">
          <mxGeometry x="760" y="482" width="100" height="40" as="geometry" />
        </mxCell>
        <mxCell id="j2GO0OiW-Q0y1aepMTHA-49" value="" style="endArrow=none;html=1;rounded=0;exitX=0.628;exitY=0.025;exitDx=0;exitDy=0;exitPerimeter=0;" edge="1" parent="1" source="j2GO0OiW-Q0y1aepMTHA-47" target="j2GO0OiW-Q0y1aepMTHA-48">
          <mxGeometry relative="1" as="geometry">
            <mxPoint x="500" y="632" as="sourcePoint" />
            <mxPoint x="660" y="632" as="targetPoint" />
          </mxGeometry>
        </mxCell>
        <mxCell id="j2GO0OiW-Q0y1aepMTHA-50" value="Mother&#39;s Phone No." style="ellipse;whiteSpace=wrap;html=1;align=center;" vertex="1" parent="1">
          <mxGeometry x="807" y="522" width="100" height="40" as="geometry" />
        </mxCell>
        <mxCell id="j2GO0OiW-Q0y1aepMTHA-51" value="Highest Qualification" style="ellipse;whiteSpace=wrap;html=1;align=center;" vertex="1" parent="1">
          <mxGeometry x="830" y="572" width="100" height="40" as="geometry" />
        </mxCell>
        <mxCell id="j2GO0OiW-Q0y1aepMTHA-52" value="" style="endArrow=none;html=1;rounded=0;exitX=0.964;exitY=0.725;exitDx=0;exitDy=0;exitPerimeter=0;" edge="1" parent="1" source="j2GO0OiW-Q0y1aepMTHA-47" target="j2GO0OiW-Q0y1aepMTHA-51">
          <mxGeometry relative="1" as="geometry">
            <mxPoint x="798.5" y="657.5" as="sourcePoint" />
            <mxPoint x="715.5" y="736.5" as="targetPoint" />
          </mxGeometry>
        </mxCell>
        <mxCell id="j2GO0OiW-Q0y1aepMTHA-53" value="Occupation" style="ellipse;whiteSpace=wrap;html=1;align=center;" vertex="1" parent="1">
          <mxGeometry x="797" y="622" width="100" height="40" as="geometry" />
        </mxCell>
        <mxCell id="j2GO0OiW-Q0y1aepMTHA-54" value="" style="endArrow=none;html=1;rounded=0;exitX=1;exitY=1;exitDx=0;exitDy=0;" edge="1" parent="1" source="j2GO0OiW-Q0y1aepMTHA-47" target="j2GO0OiW-Q0y1aepMTHA-53">
          <mxGeometry relative="1" as="geometry">
            <mxPoint x="780" y="693" as="sourcePoint" />
            <mxPoint x="697" y="772" as="targetPoint" />
          </mxGeometry>
        </mxCell>
        <mxCell id="j2GO0OiW-Q0y1aepMTHA-56" value="" style="endArrow=none;html=1;rounded=0;entryX=0.236;entryY=0.185;entryDx=0;entryDy=0;entryPerimeter=0;exitX=0.656;exitY=1.085;exitDx=0;exitDy=0;exitPerimeter=0;" edge="1" parent="1" source="j2GO0OiW-Q0y1aepMTHA-37" target="j2GO0OiW-Q0y1aepMTHA-47">
          <mxGeometry relative="1" as="geometry">
            <mxPoint x="610" y="460" as="sourcePoint" />
            <mxPoint x="770" y="460" as="targetPoint" />
          </mxGeometry>
        </mxCell>
        <mxCell id="j2GO0OiW-Q0y1aepMTHA-57" value="Gender" style="ellipse;whiteSpace=wrap;html=1;align=center;" vertex="1" parent="1">
          <mxGeometry x="160" y="430" width="100" height="40" as="geometry" />
        </mxCell>
        <mxCell id="j2GO0OiW-Q0y1aepMTHA-60" value="" style="endArrow=none;html=1;rounded=0;entryX=0;entryY=0.5;entryDx=0;entryDy=0;exitX=1;exitY=0.5;exitDx=0;exitDy=0;" edge="1" parent="1" source="j2GO0OiW-Q0y1aepMTHA-57" target="j2GO0OiW-Q0y1aepMTHA-4">
          <mxGeometry relative="1" as="geometry">
            <mxPoint x="270" y="450" as="sourcePoint" />
            <mxPoint x="360" y="449" as="targetPoint" />
          </mxGeometry>
        </mxCell>
        <mxCell id="j2GO0OiW-Q0y1aepMTHA-62" value="Category" style="ellipse;whiteSpace=wrap;html=1;align=center;" vertex="1" parent="1">
          <mxGeometry x="140" y="380" width="100" height="40" as="geometry" />
        </mxCell>
        <mxCell id="j2GO0OiW-Q0y1aepMTHA-63" value="" style="endArrow=none;html=1;rounded=0;entryX=0;entryY=0.25;entryDx=0;entryDy=0;exitX=1;exitY=0.5;exitDx=0;exitDy=0;" edge="1" parent="1" source="j2GO0OiW-Q0y1aepMTHA-62" target="j2GO0OiW-Q0y1aepMTHA-4">
          <mxGeometry relative="1" as="geometry">
            <mxPoint x="250" y="400" as="sourcePoint" />
            <mxPoint x="350" y="400" as="targetPoint" />
          </mxGeometry>
        </mxCell>
        <mxCell id="j2GO0OiW-Q0y1aepMTHA-68" value="Address" style="ellipse;whiteSpace=wrap;html=1;align=center;" vertex="1" parent="1">
          <mxGeometry x="30" y="535" width="100" height="70" as="geometry" />
        </mxCell>
        <mxCell id="j2GO0OiW-Q0y1aepMTHA-69" value="" style="endArrow=none;html=1;rounded=0;entryX=0;entryY=1;entryDx=0;entryDy=0;exitX=1;exitY=0.5;exitDx=0;exitDy=0;" edge="1" parent="1" source="j2GO0OiW-Q0y1aepMTHA-68" target="j2GO0OiW-Q0y1aepMTHA-4">
          <mxGeometry relative="1" as="geometry">
            <mxPoint x="270" y="512" as="sourcePoint" />
            <mxPoint x="370" y="512" as="targetPoint" />
          </mxGeometry>
        </mxCell>
        <mxCell id="j2GO0OiW-Q0y1aepMTHA-70" value="Current Address" style="ellipse;whiteSpace=wrap;html=1;align=center;" vertex="1" parent="1">
          <mxGeometry x="-130" y="600" width="100" height="40" as="geometry" />
        </mxCell>
        <mxCell id="j2GO0OiW-Q0y1aepMTHA-78" value="" style="endArrow=none;html=1;rounded=0;entryX=0;entryY=1;entryDx=0;entryDy=0;exitX=0.5;exitY=0;exitDx=0;exitDy=0;" edge="1" parent="1" source="j2GO0OiW-Q0y1aepMTHA-70" target="j2GO0OiW-Q0y1aepMTHA-68">
          <mxGeometry relative="1" as="geometry">
            <mxPoint x="80" y="640" as="sourcePoint" />
            <mxPoint x="240" y="640" as="targetPoint" />
          </mxGeometry>
        </mxCell>
        <mxCell id="j2GO0OiW-Q0y1aepMTHA-79" value="Address Line 1" style="ellipse;whiteSpace=wrap;html=1;align=center;" vertex="1" parent="1">
          <mxGeometry x="-330" y="736" width="100" height="40" as="geometry" />
        </mxCell>
        <mxCell id="j2GO0OiW-Q0y1aepMTHA-80" value="" style="endArrow=none;html=1;rounded=0;entryX=0.26;entryY=0.944;entryDx=0;entryDy=0;entryPerimeter=0;exitX=0.7;exitY=0.082;exitDx=0;exitDy=0;exitPerimeter=0;" edge="1" parent="1" source="j2GO0OiW-Q0y1aepMTHA-79" target="j2GO0OiW-Q0y1aepMTHA-70">
          <mxGeometry relative="1" as="geometry">
            <mxPoint x="50" y="750" as="sourcePoint" />
            <mxPoint x="190" y="750" as="targetPoint" />
            <Array as="points" />
          </mxGeometry>
        </mxCell>
        <mxCell id="j2GO0OiW-Q0y1aepMTHA-81" value="Address Line 2" style="ellipse;whiteSpace=wrap;html=1;align=center;" vertex="1" parent="1">
          <mxGeometry x="-320" y="786" width="100" height="40" as="geometry" />
        </mxCell>
        <mxCell id="j2GO0OiW-Q0y1aepMTHA-82" value="" style="endArrow=none;html=1;rounded=0;entryX=0.415;entryY=1.029;entryDx=0;entryDy=0;entryPerimeter=0;exitX=0.7;exitY=0.082;exitDx=0;exitDy=0;exitPerimeter=0;" edge="1" parent="1" source="j2GO0OiW-Q0y1aepMTHA-81" target="j2GO0OiW-Q0y1aepMTHA-70">
          <mxGeometry relative="1" as="geometry">
            <mxPoint x="110" y="796" as="sourcePoint" />
            <mxPoint x="56" y="724" as="targetPoint" />
            <Array as="points" />
          </mxGeometry>
        </mxCell>
        <mxCell id="j2GO0OiW-Q0y1aepMTHA-83" value="City" style="ellipse;whiteSpace=wrap;html=1;align=center;" vertex="1" parent="1">
          <mxGeometry x="-220" y="760" width="100" height="40" as="geometry" />
        </mxCell>
        <mxCell id="j2GO0OiW-Q0y1aepMTHA-84" value="" style="endArrow=none;html=1;rounded=0;entryX=0.6;entryY=1.06;entryDx=0;entryDy=0;entryPerimeter=0;exitX=0.5;exitY=0;exitDx=0;exitDy=0;" edge="1" parent="1" source="j2GO0OiW-Q0y1aepMTHA-83" target="j2GO0OiW-Q0y1aepMTHA-70">
          <mxGeometry relative="1" as="geometry">
            <mxPoint x="200" y="772" as="sourcePoint" />
            <mxPoint x="146" y="700" as="targetPoint" />
            <Array as="points" />
          </mxGeometry>
        </mxCell>
        <mxCell id="j2GO0OiW-Q0y1aepMTHA-85" value="District" style="ellipse;whiteSpace=wrap;html=1;align=center;" vertex="1" parent="1">
          <mxGeometry x="-190" y="826" width="100" height="40" as="geometry" />
        </mxCell>
        <mxCell id="j2GO0OiW-Q0y1aepMTHA-86" value="" style="endArrow=none;html=1;rounded=0;entryX=0.742;entryY=0.952;entryDx=0;entryDy=0;entryPerimeter=0;" edge="1" parent="1" source="j2GO0OiW-Q0y1aepMTHA-85" target="j2GO0OiW-Q0y1aepMTHA-70">
          <mxGeometry relative="1" as="geometry">
            <mxPoint x="260" y="780" as="sourcePoint" />
            <mxPoint x="206" y="708" as="targetPoint" />
            <Array as="points" />
          </mxGeometry>
        </mxCell>
        <mxCell id="j2GO0OiW-Q0y1aepMTHA-87" value="State" style="ellipse;whiteSpace=wrap;html=1;align=center;" vertex="1" parent="1">
          <mxGeometry x="-90" y="816" width="100" height="40" as="geometry" />
        </mxCell>
        <mxCell id="j2GO0OiW-Q0y1aepMTHA-88" value="" style="endArrow=none;html=1;rounded=0;entryX=0.77;entryY=0.943;entryDx=0;entryDy=0;entryPerimeter=0;exitX=0.403;exitY=0.075;exitDx=0;exitDy=0;exitPerimeter=0;" edge="1" parent="1" source="j2GO0OiW-Q0y1aepMTHA-87" target="j2GO0OiW-Q0y1aepMTHA-70">
          <mxGeometry relative="1" as="geometry">
            <mxPoint x="220" y="840" as="sourcePoint" />
            <mxPoint x="50" y="674.72" as="targetPoint" />
            <Array as="points" />
          </mxGeometry>
        </mxCell>
        <mxCell id="j2GO0OiW-Q0y1aepMTHA-89" value="Pincode" style="ellipse;whiteSpace=wrap;html=1;align=center;" vertex="1" parent="1">
          <mxGeometry x="-40" y="768" width="100" height="40" as="geometry" />
        </mxCell>
        <mxCell id="j2GO0OiW-Q0y1aepMTHA-90" value="" style="endArrow=none;html=1;rounded=0;entryX=0.932;entryY=0.69;entryDx=0;entryDy=0;entryPerimeter=0;exitX=0.7;exitY=0.082;exitDx=0;exitDy=0;exitPerimeter=0;" edge="1" parent="1" source="j2GO0OiW-Q0y1aepMTHA-89" target="j2GO0OiW-Q0y1aepMTHA-70">
          <mxGeometry relative="1" as="geometry">
            <mxPoint x="404" y="750" as="sourcePoint" />
            <mxPoint x="350" y="678" as="targetPoint" />
            <Array as="points" />
          </mxGeometry>
        </mxCell>
        <mxCell id="j2GO0OiW-Q0y1aepMTHA-91" value="Current Address" style="ellipse;whiteSpace=wrap;html=1;align=center;" vertex="1" parent="1">
          <mxGeometry x="200" y="616" width="100" height="40" as="geometry" />
        </mxCell>
        <mxCell id="j2GO0OiW-Q0y1aepMTHA-92" value="Address Line 1" style="ellipse;whiteSpace=wrap;html=1;align=center;" vertex="1" parent="1">
          <mxGeometry x="80" y="746" width="100" height="40" as="geometry" />
        </mxCell>
        <mxCell id="j2GO0OiW-Q0y1aepMTHA-93" value="" style="endArrow=none;html=1;rounded=0;entryX=0.26;entryY=0.944;entryDx=0;entryDy=0;entryPerimeter=0;exitX=0.7;exitY=0.082;exitDx=0;exitDy=0;exitPerimeter=0;" edge="1" parent="1" source="j2GO0OiW-Q0y1aepMTHA-92" target="j2GO0OiW-Q0y1aepMTHA-91">
          <mxGeometry relative="1" as="geometry">
            <mxPoint x="280" y="726" as="sourcePoint" />
            <mxPoint x="420" y="726" as="targetPoint" />
            <Array as="points" />
          </mxGeometry>
        </mxCell>
        <mxCell id="j2GO0OiW-Q0y1aepMTHA-94" value="Address Line 2" style="ellipse;whiteSpace=wrap;html=1;align=center;" vertex="1" parent="1">
          <mxGeometry x="140" y="792" width="100" height="40" as="geometry" />
        </mxCell>
        <mxCell id="j2GO0OiW-Q0y1aepMTHA-95" value="" style="endArrow=none;html=1;rounded=0;entryX=0.415;entryY=1.029;entryDx=0;entryDy=0;entryPerimeter=0;exitX=0.7;exitY=0.082;exitDx=0;exitDy=0;exitPerimeter=0;" edge="1" parent="1" source="j2GO0OiW-Q0y1aepMTHA-94" target="j2GO0OiW-Q0y1aepMTHA-91">
          <mxGeometry relative="1" as="geometry">
            <mxPoint x="340" y="772" as="sourcePoint" />
            <mxPoint x="286" y="700" as="targetPoint" />
            <Array as="points" />
          </mxGeometry>
        </mxCell>
        <mxCell id="j2GO0OiW-Q0y1aepMTHA-96" value="City" style="ellipse;whiteSpace=wrap;html=1;align=center;" vertex="1" parent="1">
          <mxGeometry x="230" y="816" width="100" height="40" as="geometry" />
        </mxCell>
        <mxCell id="j2GO0OiW-Q0y1aepMTHA-97" value="" style="endArrow=none;html=1;rounded=0;entryX=0.6;entryY=1.06;entryDx=0;entryDy=0;entryPerimeter=0;exitX=0.5;exitY=0;exitDx=0;exitDy=0;" edge="1" parent="1" source="j2GO0OiW-Q0y1aepMTHA-96" target="j2GO0OiW-Q0y1aepMTHA-91">
          <mxGeometry relative="1" as="geometry">
            <mxPoint x="430" y="748" as="sourcePoint" />
            <mxPoint x="376" y="676" as="targetPoint" />
            <Array as="points" />
          </mxGeometry>
        </mxCell>
        <mxCell id="j2GO0OiW-Q0y1aepMTHA-98" value="District" style="ellipse;whiteSpace=wrap;html=1;align=center;" vertex="1" parent="1">
          <mxGeometry x="290" y="776" width="100" height="40" as="geometry" />
        </mxCell>
        <mxCell id="j2GO0OiW-Q0y1aepMTHA-99" value="" style="endArrow=none;html=1;rounded=0;entryX=0.742;entryY=0.952;entryDx=0;entryDy=0;entryPerimeter=0;" edge="1" parent="1" source="j2GO0OiW-Q0y1aepMTHA-98" target="j2GO0OiW-Q0y1aepMTHA-91">
          <mxGeometry relative="1" as="geometry">
            <mxPoint x="490" y="756" as="sourcePoint" />
            <mxPoint x="436" y="684" as="targetPoint" />
            <Array as="points" />
          </mxGeometry>
        </mxCell>
        <mxCell id="j2GO0OiW-Q0y1aepMTHA-100" value="State" style="ellipse;whiteSpace=wrap;html=1;align=center;" vertex="1" parent="1">
          <mxGeometry x="400" y="808" width="100" height="40" as="geometry" />
        </mxCell>
        <mxCell id="j2GO0OiW-Q0y1aepMTHA-101" value="" style="endArrow=none;html=1;rounded=0;entryX=1;entryY=0.75;entryDx=0;entryDy=0;entryPerimeter=0;exitX=0.403;exitY=0.075;exitDx=0;exitDy=0;exitPerimeter=0;" edge="1" parent="1" source="j2GO0OiW-Q0y1aepMTHA-100">
          <mxGeometry relative="1" as="geometry">
            <mxPoint x="450" y="816" as="sourcePoint" />
            <mxPoint x="280" y="650.72" as="targetPoint" />
            <Array as="points" />
          </mxGeometry>
        </mxCell>
        <mxCell id="j2GO0OiW-Q0y1aepMTHA-102" value="Pincode" style="ellipse;whiteSpace=wrap;html=1;align=center;" vertex="1" parent="1">
          <mxGeometry x="434" y="746" width="100" height="40" as="geometry" />
        </mxCell>
        <mxCell id="j2GO0OiW-Q0y1aepMTHA-103" value="" style="endArrow=none;html=1;rounded=0;entryX=0.932;entryY=0.69;entryDx=0;entryDy=0;entryPerimeter=0;exitX=0.7;exitY=0.082;exitDx=0;exitDy=0;exitPerimeter=0;" edge="1" parent="1" source="j2GO0OiW-Q0y1aepMTHA-102" target="j2GO0OiW-Q0y1aepMTHA-91">
          <mxGeometry relative="1" as="geometry">
            <mxPoint x="634" y="726" as="sourcePoint" />
            <mxPoint x="580" y="654" as="targetPoint" />
            <Array as="points" />
          </mxGeometry>
        </mxCell>
        <mxCell id="j2GO0OiW-Q0y1aepMTHA-104" value="" style="endArrow=none;html=1;rounded=0;entryX=1;entryY=1;entryDx=0;entryDy=0;exitX=0.294;exitY=0.001;exitDx=0;exitDy=0;exitPerimeter=0;" edge="1" parent="1" source="j2GO0OiW-Q0y1aepMTHA-91" target="j2GO0OiW-Q0y1aepMTHA-68">
          <mxGeometry relative="1" as="geometry">
            <mxPoint x="-70" y="610" as="sourcePoint" />
            <mxPoint x="184" y="562" as="targetPoint" />
          </mxGeometry>
        </mxCell>
        <mxCell id="j2GO0OiW-Q0y1aepMTHA-105" value="Section" style="ellipse;whiteSpace=wrap;html=1;align=center;" vertex="1" parent="1">
          <mxGeometry x="85" y="470" width="100" height="40" as="geometry" />
        </mxCell>
        <mxCell id="j2GO0OiW-Q0y1aepMTHA-106" value="" style="endArrow=none;html=1;rounded=0;entryX=0;entryY=0.75;entryDx=0;entryDy=0;exitX=1;exitY=0.5;exitDx=0;exitDy=0;" edge="1" parent="1" source="j2GO0OiW-Q0y1aepMTHA-105" target="j2GO0OiW-Q0y1aepMTHA-4">
          <mxGeometry relative="1" as="geometry">
            <mxPoint x="195" y="490" as="sourcePoint" />
            <mxPoint x="295" y="490" as="targetPoint" />
          </mxGeometry>
        </mxCell>
        <mxCell id="j2GO0OiW-Q0y1aepMTHA-107" value="Blood Group" style="ellipse;whiteSpace=wrap;html=1;align=center;" vertex="1" parent="1">
          <mxGeometry x="410" y="260" width="100" height="40" as="geometry" />
        </mxCell>
        <mxCell id="j2GO0OiW-Q0y1aepMTHA-108" value="" style="endArrow=none;html=1;rounded=0;entryX=0.5;entryY=0;entryDx=0;entryDy=0;exitX=0.5;exitY=1;exitDx=0;exitDy=0;" edge="1" parent="1" source="j2GO0OiW-Q0y1aepMTHA-107" target="j2GO0OiW-Q0y1aepMTHA-4">
          <mxGeometry relative="1" as="geometry">
            <mxPoint x="510" y="280" as="sourcePoint" />
            <mxPoint x="610" y="280" as="targetPoint" />
          </mxGeometry>
        </mxCell>
        <mxCell id="j2GO0OiW-Q0y1aepMTHA-109" value="Aadhar Number" style="ellipse;whiteSpace=wrap;html=1;align=center;" vertex="1" parent="1">
          <mxGeometry x="240" y="550" width="100" height="40" as="geometry" />
        </mxCell>
        <mxCell id="j2GO0OiW-Q0y1aepMTHA-110" value="" style="endArrow=none;html=1;rounded=0;entryX=0.25;entryY=1;entryDx=0;entryDy=0;exitX=0.5;exitY=0;exitDx=0;exitDy=0;" edge="1" parent="1" source="j2GO0OiW-Q0y1aepMTHA-109" target="j2GO0OiW-Q0y1aepMTHA-4">
          <mxGeometry relative="1" as="geometry">
            <mxPoint x="390" y="555" as="sourcePoint" />
            <mxPoint x="490" y="555" as="targetPoint" />
          </mxGeometry>
        </mxCell>
        <mxCell id="j2GO0OiW-Q0y1aepMTHA-111" value="Mobile No." style="ellipse;whiteSpace=wrap;html=1;align=center;" vertex="1" parent="1">
          <mxGeometry x="320" y="582" width="100" height="40" as="geometry" />
        </mxCell>
        <mxCell id="j2GO0OiW-Q0y1aepMTHA-112" value="" style="endArrow=none;html=1;rounded=0;exitX=0.5;exitY=0;exitDx=0;exitDy=0;entryX=0.5;entryY=1;entryDx=0;entryDy=0;" edge="1" parent="1" source="j2GO0OiW-Q0y1aepMTHA-111" target="j2GO0OiW-Q0y1aepMTHA-4">
          <mxGeometry relative="1" as="geometry">
            <mxPoint x="465" y="570" as="sourcePoint" />
            <mxPoint x="420" y="480" as="targetPoint" />
          </mxGeometry>
        </mxCell>
        <mxCell id="j2GO0OiW-Q0y1aepMTHA-113" value="Email Id" style="ellipse;whiteSpace=wrap;html=1;align=center;" vertex="1" parent="1">
          <mxGeometry x="420" y="542" width="100" height="40" as="geometry" />
        </mxCell>
        <mxCell id="j2GO0OiW-Q0y1aepMTHA-114" value="" style="endArrow=none;html=1;rounded=0;exitX=0.5;exitY=0;exitDx=0;exitDy=0;entryX=0.651;entryY=1.082;entryDx=0;entryDy=0;entryPerimeter=0;" edge="1" parent="1" source="j2GO0OiW-Q0y1aepMTHA-113" target="j2GO0OiW-Q0y1aepMTHA-4">
          <mxGeometry relative="1" as="geometry">
            <mxPoint x="520" y="622" as="sourcePoint" />
            <mxPoint x="475" y="522" as="targetPoint" />
          </mxGeometry>
        </mxCell>
        <mxCell id="j2GO0OiW-Q0y1aepMTHA-115" value="Date of Admission" style="ellipse;whiteSpace=wrap;html=1;align=center;" vertex="1" parent="1">
          <mxGeometry x="520" y="622" width="100" height="40" as="geometry" />
        </mxCell>
        <mxCell id="j2GO0OiW-Q0y1aepMTHA-116" value="" style="endArrow=none;html=1;rounded=0;exitX=0.5;exitY=0;exitDx=0;exitDy=0;entryX=1;entryY=1;entryDx=0;entryDy=0;" edge="1" parent="1" source="j2GO0OiW-Q0y1aepMTHA-115" target="j2GO0OiW-Q0y1aepMTHA-4">
          <mxGeometry relative="1" as="geometry">
            <mxPoint x="620" y="635" as="sourcePoint" />
            <mxPoint x="575" y="535" as="targetPoint" />
          </mxGeometry>
        </mxCell>
        <mxCell id="j2GO0OiW-Q0y1aepMTHA-119" value="Academic Inforrmation" style="ellipse;shape=doubleEllipse;margin=3;whiteSpace=wrap;html=1;align=center;" vertex="1" parent="1">
          <mxGeometry x="120" y="170" width="150" height="70" as="geometry" />
        </mxCell>
        <mxCell id="j2GO0OiW-Q0y1aepMTHA-120" value="" style="endArrow=none;html=1;rounded=0;entryX=0.25;entryY=0;entryDx=0;entryDy=0;exitX=0.5;exitY=1;exitDx=0;exitDy=0;" edge="1" parent="1" source="j2GO0OiW-Q0y1aepMTHA-119" target="j2GO0OiW-Q0y1aepMTHA-4">
          <mxGeometry relative="1" as="geometry">
            <mxPoint x="260" y="210" as="sourcePoint" />
            <mxPoint x="500" y="110" as="targetPoint" />
          </mxGeometry>
        </mxCell>
        <mxCell id="j2GO0OiW-Q0y1aepMTHA-121" value="Class" style="ellipse;whiteSpace=wrap;html=1;align=center;" vertex="1" parent="1">
          <mxGeometry x="-110" y="150" width="100" height="40" as="geometry" />
        </mxCell>
        <mxCell id="j2GO0OiW-Q0y1aepMTHA-122" value="" style="endArrow=none;html=1;rounded=0;entryX=0;entryY=0.25;entryDx=0;entryDy=0;exitX=1;exitY=0.5;exitDx=0;exitDy=0;" edge="1" parent="1" source="j2GO0OiW-Q0y1aepMTHA-121">
          <mxGeometry relative="1" as="geometry">
            <mxPoint y="170" as="sourcePoint" />
            <mxPoint x="120" y="210" as="targetPoint" />
          </mxGeometry>
        </mxCell>
        <mxCell id="j2GO0OiW-Q0y1aepMTHA-123" value="Year Passed" style="ellipse;whiteSpace=wrap;html=1;align=center;" vertex="1" parent="1">
          <mxGeometry x="-50" y="90" width="100" height="40" as="geometry" />
        </mxCell>
        <mxCell id="j2GO0OiW-Q0y1aepMTHA-124" value="" style="endArrow=none;html=1;rounded=0;entryX=0;entryY=0;entryDx=0;entryDy=0;exitX=0.5;exitY=1;exitDx=0;exitDy=0;" edge="1" parent="1" source="j2GO0OiW-Q0y1aepMTHA-123" target="j2GO0OiW-Q0y1aepMTHA-119">
          <mxGeometry relative="1" as="geometry">
            <mxPoint x="60" y="110" as="sourcePoint" />
            <mxPoint x="180" y="150" as="targetPoint" />
          </mxGeometry>
        </mxCell>
        <mxCell id="j2GO0OiW-Q0y1aepMTHA-125" value="Result" style="ellipse;whiteSpace=wrap;html=1;align=center;" vertex="1" parent="1">
          <mxGeometry x="60" y="70" width="100" height="40" as="geometry" />
        </mxCell>
        <mxCell id="j2GO0OiW-Q0y1aepMTHA-126" value="" style="endArrow=none;html=1;rounded=0;entryX=0.303;entryY=0.055;entryDx=0;entryDy=0;exitX=0.5;exitY=1;exitDx=0;exitDy=0;entryPerimeter=0;" edge="1" parent="1" source="j2GO0OiW-Q0y1aepMTHA-125" target="j2GO0OiW-Q0y1aepMTHA-119">
          <mxGeometry relative="1" as="geometry">
            <mxPoint x="170" y="90" as="sourcePoint" />
            <mxPoint x="290" y="130" as="targetPoint" />
          </mxGeometry>
        </mxCell>
        <mxCell id="j2GO0OiW-Q0y1aepMTHA-127" value="University" style="ellipse;whiteSpace=wrap;html=1;align=center;" vertex="1" parent="1">
          <mxGeometry x="160" y="50" width="100" height="40" as="geometry" />
        </mxCell>
        <mxCell id="j2GO0OiW-Q0y1aepMTHA-128" value="" style="endArrow=none;html=1;rounded=0;entryX=0.691;entryY=-0.01;entryDx=0;entryDy=0;exitX=0.5;exitY=1;exitDx=0;exitDy=0;entryPerimeter=0;" edge="1" parent="1" source="j2GO0OiW-Q0y1aepMTHA-127" target="j2GO0OiW-Q0y1aepMTHA-119">
          <mxGeometry relative="1" as="geometry">
            <mxPoint x="345" y="80" as="sourcePoint" />
            <mxPoint x="465" y="120" as="targetPoint" />
          </mxGeometry>
        </mxCell>
      </root>
    </mxGraphModel>
  </diagram>
</mxfile>
